<?xml version="1.0" standalone="no"?>
<!DOCTYPE svg PUBLIC "-//W3C//DTD SVG 20010904//EN"
 "http://www.w3.org/TR/2001/REC-SVG-20010904/DTD/svg10.dtd">
<svg version="1.0" xmlns="http://www.w3.org/2000/svg"
 width="700.000000pt" height="700.000000pt" viewBox="0 0 700.000000 700.000000"
 preserveAspectRatio="xMidYMid meet">
<metadata>
Created by potrace 1.14, written by Peter Selinger 2001-2017
</metadata>
<g transform="translate(0.000000,700.000000) scale(0.100000,-0.100000)"
fill="#000000" stroke="none">
<path d="M3457 6674 c-1 -1 -56 -4 -122 -7 -144 -7 -243 -20 -480 -62 -49 -9
-244 -63 -325 -89 -331 -110 -625 -263 -910 -475 -41 -30 -77 -58 -80 -61 -3
-3 -32 -27 -65 -54 -153 -127 -357 -343 -493 -522 -147 -196 -312 -483 -383
-668 -11 -28 -24 -60 -29 -71 -29 -60 -90 -249 -116 -355 -1 -8 -12 -51 -23
-95 -11 -44 -22 -100 -26 -125 -4 -24 -8 -47 -10 -50 -2 -3 -7 -33 -10 -65 -4
-33 -9 -62 -10 -65 -18 -31 -27 -544 -12 -695 9 -96 30 -246 42 -304 131 -648
421 -1192 879 -1646 160 -159 301 -275 469 -387 56 -38 107 -72 113 -76 5 -4
19 -12 30 -18 10 -6 52 -29 92 -52 39 -23 72 -38 72 -35 0 3 8 -1 18 -9 37
-31 317 -150 462 -196 108 -34 249 -70 358 -92 111 -22 123 -24 312 -47 131
-16 690 -6 720 12 4 2 28 6 56 9 193 20 527 114 774 218 96 40 342 166 390
198 14 10 66 44 115 76 50 32 95 62 100 66 6 5 44 34 85 66 255 195 528 484
686 727 21 33 42 62 45 65 26 23 192 337 248 470 18 41 36 83 41 92 6 10 10
23 10 29 0 6 6 25 14 42 43 97 132 437 150 577 3 25 8 56 10 70 28 158 37 436
23 660 -4 58 -9 114 -11 126 -2 11 -7 47 -10 80 -4 32 -9 68 -11 79 -3 11 -7
33 -10 49 -52 323 -199 725 -375 1026 -175 300 -420 597 -665 805 -38 33 -72
63 -75 66 -29 32 -275 202 -396 274 -351 208 -814 369 -1189 412 -22 2 -53 6
-70 8 -26 4 -133 10 -348 19 -31 1 -58 2 -60 0z"/>
</g>
</svg>
